@startuml
title Bewerbungsstatus

state Unregistered : Abgemeldet
state Submitted : Bewerbung eingereicht
state DocumentMissing : Dokumente fehlen
state AdmissionCriteriaNotMet : Zulassungskriterien nicht erfüllt

[*] --> DocumentMissing : Angemeldet
DocumentMissing --> Submitted : Dokumente nachgereicht

state "AV" as AV {
    state Unassigned : Bewerbung nicht zugewiesen
    state Rejected : Bewerber abgelehnt
    state Accepted : Bewerber akzeptiert
    state Assigned : Bewerbung zugewiesen
}

Submitted --> Unassigned
Submitted --> DocumentMissing : Dokumente fehlen
Submitted --> AdmissionCriteriaNotMet
Unassigned --> Assigned : Bewerbung zugewiesen
Unassigned --> Rejected : Bewerbung abgelehnt
Unassigned --> Accepted : Bewerbung akzeptiert
Assigned --> Rejected : Bewerbung abgelehnt
Assigned --> Accepted : Bewerbung akzeptiert

@enduml